<svg xmlns="http://www.w3.org/2000/svg" viewBox="0 0 546 116" width="546" height="116" xmlns:c2pa="http://c2pa.org/manifest"><metadata><c2pa:manifest>AAAWgmp1bWIAAAAeanVtZGMycGEAEQAQgAAAqgA4m3EDYzJwYQAAABZcanVtYgAAAEdqdW1kYzJtYQARABCAAACqADibcQN1cm46YzJwYTo0NDNmNGU0ZS1jMzZmLTRkMTQtYWRhMC0yNGNmZGE0M2FmZjcAAAADl2p1bWIAAAApanVtZGMyYXMAEQAQgAAAqgA4m3EDYzJwYS5hc3NlcnRpb25zAAAAALxqdW1iAAAARGp1bWRjYm9yABEAEIAAAKoAOJtxE2MycGEuaW5ncmVkaWVudC52MwAAAAAYYzJzaAMTyCoCKAbdh96Bj+wmBx8AAABwY2JvcqNpZGM6Zm9ybWF0bWltYWdlL3N2Zyt4bWxqaW5zdGFuY2VJRHgseG1wOmlpZDplYzc3MzQ3OS1jZDRhLTRjNWUtYWY0Mi0zNmIzMjIyYWQxODRscmVsYXRpb25zaGlwaHBhcmVudE9mAAAB4mp1bWIAAABBanVtZGNib3IAEQAQgAAAqgA4m3ETYzJwYS5hY3Rpb25zLnYyAAAAABhjMnNo8ROnsvrvb8Q+zydiw9Ka3gAAAZljYm9yomdhY3Rpb25zgqJmYWN0aW9ua2MycGEub3BlbmVkanBhcmFtZXRlcnOha2luZ3JlZGllbnRzgaJjdXJseC1zZWxmI2p1bWJmPWMycGEuYXNzZXJ0aW9ucy9jMnBhLmluZ3JlZGllbnQudjNkaGFzaFggZzNxmzBbT3jwATKmJEmbHPCUj6pUkL+mBUQzoNemKP6kZmFjdGlvbngdY29tLmFudGhyb3BpYy5jbGF1ZGUucHJvdmlkZWRqcGFyYW1ldGVyc6F4H2NvbS5hbnRocm9waWMub3JpZ2luLWNvbmZpZGVuY2VndW5rbm93bmtkZXNjcmlwdGlvbnhmQ2xhdWRlIHByb3ZpZGVkIHRoaXMgZmlsZSBhdCB0aGUgcmVxdWVzdCBvZiBhIHVzZXIgYW5kIG1heSBoYXZlIGNyZWF0ZWQgb3IgbW9kaWZpZWQgdGhlIGZpbGUgY29udGVudHMubXNvZnR3YXJlQWdlbnShZG5hbWVmQ2xhdWRlcmFsbEFjdGlvbnNJbmNsdWRlZPUAAADIanVtYgAAAEBqdW1kY2JvcgARABCAAACqADibcRNjMnBhLmhhc2guZGF0YQAAAAAYYzJzaHP6vdMUAXt2TK/BhUPfGcwAAACAY2JvcqVjYWxnZnNoYTI1NmNwYWRNAAAAAAAAAAAAAAAAAGRoYXNoWCBAjUSwH/0W02keNccCBbq8f3ua2tVp93mzPS8lT1Ts1GRuYW1lbmp1bWJmIG1hbmlmZXN0amV4Y2x1c2lvbnOBomVzdGFydBiWZmxlbmd0aBkeBAAAAj5qdW1iAAAAJ2p1bWRjMmNsABEAEIAAAKoAOJtxA2MycGEuY2xhaW0udjIAAAACD2Nib3KlY2FsZ2ZzaGEyNTZpc2lnbmF0dXJleE1zZWxmI2p1bWJmPS9jMnBhL3VybjpjMnBhOjQ0M2Y0ZTRlLWMzNmYtNGQxNC1hZGEwLTI0Y2ZkYTQzYWZmNy9jMnBhLnNpZ25hdHVyZWppbnN0YW5jZUlEeCx4bXA6aWlkOjI5MDkyN2EwLTA3NTQtNDMzMS04MzEwLTllZDcyMzk1NjA0M3JjcmVhdGVkX2Fzc2VydGlvbnODomN1cmx4LXNlbGYjanVtYmY9YzJwYS5hc3NlcnRpb25zL2MycGEuaW5ncmVkaWVudC52M2RoYXNoWCBnM3GbMFtPePABMqYkSZsc8JSPqlSQv6YFRDOg16Yo/qJjdXJseCpzZWxmI2p1bWJmPWMycGEuYXNzZXJ0aW9ucy9jMnBhLmFjdGlvbnMudjJkaGFzaFgg69LbNMOsr/WVlxT+9kR8UqcuYL7xBkIGjWsdRuHZJ/uiY3VybHgpc2VsZiNqdW1iZj1jMnBhLmFzc2VydGlvbnMvYzJwYS5oYXNoLmRhdGFkaGFzaFgg3ctDWfLXahfSz0q6ESglErF6LP4ekS2zwATYpx2WHy90Y2xhaW1fZ2VuZXJhdG9yX2luZm+jZG5hbWVvQW50aHJvcGljIEZpbGVzZ3ZlcnNpb25lMS4wLjBrc3BlY1ZlcnNpb25lMi40LjAAABA4anVtYgAAAChqdW1kYzJjcwARABCAAACqADibcQNjMnBhLnNpZ25hdHVyZQAAABAIY2JvctKEWQISogEmGCFZAgowggIGMIIBjaADAgECAhRA5aAK7sI50L64g/oGQgU9Z1UTADAKBggqhkjOPQQDAzBJMRcwFQYDVQQKEw5BbnRocm9waWMsIFBCQzEuMCwGA1UEAxMlQW50aHJvcGljIENvbnRlbnQgQ3JlZGVudGlhbHMgUm9vdCBDQTAeFw0yNjA4MDcxODQzNTZaFw0yODA4MDYxOTQzNTZaMEQxFzAVBgNVBAoTDkFudGhyb3BpYywgUEJDMSkwJwYDVQQDEyBBbnRocm9waWMgQ2xhdWRlIENvbnRlbnQgU2lnbmluZzBZMBMGByqGSM49AgEGCCqGSM49AwEHA0IABJh6CmvLUBgFFNU0vUKlOVtE6djd17L5SuwX0LemFisBM3dkd/3cyjxFA3Qo5S46fX0/ihY0VZ7mfb9KF703t5OjWDBWMA4GA1UdDwEB/wQEAwIHgDAVBgNVHSUEDjAMBgorBgEEAYPoXgIBMAwGA1UdEwEB/wQCMAAwHwYDVR0jBBgwFoAUzlHiBIFOZFsj+OPEz5o+nMHXXMIwCgYIKoZIzj0EAwMDZwAwZAIwMXMdFJ4BetLLVY7ORuE9noqbbAZOZn/aArXyTwFAZfKrPzxF2vPoJNf1+UCdg1XGAjBwX1zd9WGqYkqmL5SFqw1QySjr1zJfpJM9+1rdDwSPLMOPOjKuiXjoU/pUUeG9RwmhY3BhZFkNngAAAAAAAAAAAAAAAAAAAAAAAAAAAAAAAAAAAAAAAAAAAAAAAAAAAAAAAAAAAAAAAAAAAAAAAAAAAAAAAAAAAAAAAAAAAAAAAAAAAAAAAAAAAAAAAAAAAAAAAAAAAAAAAAAAAAAAAAAAAAAAAAAAAAAAAAAAAAAAAAAAAAAAAAAAAAAAAAAAAAAAAAAAAAAAAAAAAAAAAAAAAAAAAAAAAAAAAAAAAAAAAAAAAAAAAAAAAAAAAAAAAAAAAAAAAAAAAAAAAAAAAAAAAAAAAAAAAAAAAAAAAAAAAAAAAAAAAAAAAAAAAAAAAAAAAAAAAAAAAAAAAAAAAAAAAAAAAAAAAAAAAAAAAAAAAAAAAAAAAAAAAAAAAAAAAAAAAAAAAAAAAAAAAAAAAAAAAAAAAAAAAAAAAAAAAAAAAAAAAAAAAAAAAAAAAAAAAAAAAAAAAAAAAAAAAAAAAAAAAAAAAAAAAAAAAAAAAAAAAAAAAAAAAAAAAAAAAAAAAAAAAAAAAAAAAAAAAAAAAAAAAAAAAAAAAAAAAAAAAAAAAAAAAAAAAAAAAAAAAAAAAAAAAAAAAAAAAAAAAAAAAAAAAAAAAAAAAAAAAAAAAAAAAAAAAAAAAAAAAAAAAAAAAAAAAAAAAAAAAAAAAAAAAAAAAAAAAAAAAAAAAAAAAAAAAAAAAAAAAAAAAAAAAAAAAAAAAAAAAAAAAAAAAAAAAAAAAAAAAAAAAAAAAAAAAAAAAAAAAAAAAAAAAAAAAAAAAAAAAAAAAAAAAAAAAAAAAAAAAAAAAAAAAAAAAAAAAAAAAAAAAAAAAAAAAAAAAAAAAAAAAAAAAAAAAAAAAAAAAAAAAAAAAAAAAAAAAAAAAAAAAAAAAAAAAAAAAAAAAAAAAAAAAAAAAAAAAAAAAAAAAAAAAAAAAAAAAAAAAAAAAAAAAAAAAAAAAAAAAAAAAAAAAAAAAAAAAAAAAAAAAAAAAAAAAAAAAAAAAAAAAAAAAAAAAAAAAAAAAAAAAAAAAAAAAAAAAAAAAAAAAAAAAAAAAAAAAAAAAAAAAAAAAAAAAAAAAAAAAAAAAAAAAAAAAAAAAAAAAAAAAAAAAAAAAAAAAAAAAAAAAAAAAAAAAAAAAAAAAAAAAAAAAAAAAAAAAAAAAAAAAAAAAAAAAAAAAAAAAAAAAAAAAAAAAAAAAAAAAAAAAAAAAAAAAAAAAAAAAAAAAAAAAAAAAAAAAAAAAAAAAAAAAAAAAAAAAAAAAAAAAAAAAAAAAAAAAAAAAAAAAAAAAAAAAAAAAAAAAAAAAAAAAAAAAAAAAAAAAAAAAAAAAAAAAAAAAAAAAAAAAAAAAAAAAAAAAAAAAAAAAAAAAAAAAAAAAAAAAAAAAAAAAAAAAAAAAAAAAAAAAAAAAAAAAAAAAAAAAAAAAAAAAAAAAAAAAAAAAAAAAAAAAAAAAAAAAAAAAAAAAAAAAAAAAAAAAAAAAAAAAAAAAAAAAAAAAAAAAAAAAAAAAAAAAAAAAAAAAAAAAAAAAAAAAAAAAAAAAAAAAAAAAAAAAAAAAAAAAAAAAAAAAAAAAAAAAAAAAAAAAAAAAAAAAAAAAAAAAAAAAAAAAAAAAAAAAAAAAAAAAAAAAAAAAAAAAAAAAAAAAAAAAAAAAAAAAAAAAAAAAAAAAAAAAAAAAAAAAAAAAAAAAAAAAAAAAAAAAAAAAAAAAAAAAAAAAAAAAAAAAAAAAAAAAAAAAAAAAAAAAAAAAAAAAAAAAAAAAAAAAAAAAAAAAAAAAAAAAAAAAAAAAAAAAAAAAAAAAAAAAAAAAAAAAAAAAAAAAAAAAAAAAAAAAAAAAAAAAAAAAAAAAAAAAAAAAAAAAAAAAAAAAAAAAAAAAAAAAAAAAAAAAAAAAAAAAAAAAAAAAAAAAAAAAAAAAAAAAAAAAAAAAAAAAAAAAAAAAAAAAAAAAAAAAAAAAAAAAAAAAAAAAAAAAAAAAAAAAAAAAAAAAAAAAAAAAAAAAAAAAAAAAAAAAAAAAAAAAAAAAAAAAAAAAAAAAAAAAAAAAAAAAAAAAAAAAAAAAAAAAAAAAAAAAAAAAAAAAAAAAAAAAAAAAAAAAAAAAAAAAAAAAAAAAAAAAAAAAAAAAAAAAAAAAAAAAAAAAAAAAAAAAAAAAAAAAAAAAAAAAAAAAAAAAAAAAAAAAAAAAAAAAAAAAAAAAAAAAAAAAAAAAAAAAAAAAAAAAAAAAAAAAAAAAAAAAAAAAAAAAAAAAAAAAAAAAAAAAAAAAAAAAAAAAAAAAAAAAAAAAAAAAAAAAAAAAAAAAAAAAAAAAAAAAAAAAAAAAAAAAAAAAAAAAAAAAAAAAAAAAAAAAAAAAAAAAAAAAAAAAAAAAAAAAAAAAAAAAAAAAAAAAAAAAAAAAAAAAAAAAAAAAAAAAAAAAAAAAAAAAAAAAAAAAAAAAAAAAAAAAAAAAAAAAAAAAAAAAAAAAAAAAAAAAAAAAAAAAAAAAAAAAAAAAAAAAAAAAAAAAAAAAAAAAAAAAAAAAAAAAAAAAAAAAAAAAAAAAAAAAAAAAAAAAAAAAAAAAAAAAAAAAAAAAAAAAAAAAAAAAAAAAAAAAAAAAAAAAAAAAAAAAAAAAAAAAAAAAAAAAAAAAAAAAAAAAAAAAAAAAAAAAAAAAAAAAAAAAAAAAAAAAAAAAAAAAAAAAAAAAAAAAAAAAAAAAAAAAAAAAAAAAAAAAAAAAAAAAAAAAAAAAAAAAAAAAAAAAAAAAAAAAAAAAAAAAAAAAAAAAAAAAAAAAAAAAAAAAAAAAAAAAAAAAAAAAAAAAAAAAAAAAAAAAAAAAAAAAAAAAAAAAAAAAAAAAAAAAAAAAAAAAAAAAAAAAAAAAAAAAAAAAAAAAAAAAAAAAAAAAAAAAAAAAAAAAAAAAAAAAAAAAAAAAAAAAAAAAAAAAAAAAAAAAAAAAAAAAAAAAAAAAAAAAAAAAAAAAAAAAAAAAAAAAAAAAAAAAAAAAAAAAAAAAAAAAAAAAAAAAAAAAAAAAAAAAAAAAAAAAAAAAAAAAAAAAAAAAAAAAAAAAAAAAAAAAAAAAAAAAAAAAAAAAAAAAAAAAAAAAAAAAAAAAAAAAAAAAAAAAAAAAAAAAAAAAAAAAAAAAAAAAAAAAAAAAAAAAAAAAAAAAAAAAAAAAAAAAAAAAAAAAAAAAAAAAAAAAAAAAAAAAAAAAAAAAAAAAAAAAAAAAAAAAAAAAAAAAAAAAAAAAAAAAAAAAAAAAAAAAAAAAAAAAAAAAAAAAAAAAAAAAAAAAAAAAAAAAAAAAAAAAAAAAAAAAAAAAAAAAAAAAAAAAAAAAAAAAAAAAAAAAAAAAAAAAAAAAAAAAAAAAAAAAAAAAAAAAAAAAAAAAAAAAAAAAAAAAAAAAAAAAAAAAAAAAAAAAAAAAAAAAAAAAAAAAAAAAAAAAAAAAAAAAAAAAAAAAAAAAAAAAAAAAAAAAAAAAAAAAAAAAAAAAAAAAAAAAAAAAAAAAAAAAAAAAAAAAAAAAAAAAAAAAAAAAAAAAAAAAAAAAAAAAAAAAAAAAAAAAAAAAAAAAAAAAAAAAAAAAAAAAAAAAAAAAAAAAAAAAAAAAAAAAAAAAAAAAAAAAAAAAAAAAAAAAAAAAAAAAAAAAAAAAAAAAAAAAAAAAAAAAAAAAAAAAAAAAAAAAAAAAAAAAAAAAAAAAAAAAAAAAAAAAAAAAAAAAAAAAAAAAAAAAAAAAAAAAAAAAAAAAAAAAAAAAAAAAAAAAAAAAAAAAAAAAAAAAAAAAAAAAAAAAAAAAAAAAAAAAAAAAAAAAAAAAAAAAAAAAAAAAAAAAAAAAAAAAAAAAAAAAAAAAAAAAAAAAAAAAAAAAAAAAAAAAAAAAAAAAAAAAAAAAAAAAAAAAAAAAAAAAAAAAAAAAAAAAAAAAAAAAAAAAAAAAAAAAAAAAAAAAAAAAAAAAAAAAAAAAAAAAAAAAAAAAAAAAAAAAAAAAAAAAAAAAAAAAAAAAAAAAAAAAAAAAAAAAAAAAAAAAAAAAAAAAAAAAAAAAAAAAAAAAAAAAAAAAAAAAAAAAAAAAAAAAAAAAAAAAAAAAAAAAAAAAAAAAAAAAAAAAAAAAAAAAAAAAAAAAAAAAAAAAAAAAAAAAAAAAAAAAAAAAAAAAAAAAAAAAAAAAAAAAAAAAAAAAAAAAAAAAAAAAAAAAAAAAAAAAAAAAAAAAAAAAAAAAAAAAAAAAAAAAAAAAAAAAAAAAAAAAAAAAAAAAAAAAAAAAAAAAAAAAAAAAAAAAAAAAAAAAAAAAAAAAAAAAAAAAAAAAAAAAAAAAAAAAAAAAAAAAAAAAAAAAAAAAAAAAAAAAAAAAAAAAAAAAAAAAAAAAAAAAAAAAAAAAAAAAAAAAAAAAAAAAAAAAAAAAAAAAAAAAAAAAAAAAAAAAAAAAAAAAAAAAAAAAAAAAAAAAAAAAAAAAAAAAAAAAAAAAAAAAAAAAAAAAAAAAAAAAAAAAAAAAAAAAAAAAAAAAAAAAAAAAAAAAAAAAAAAAAAAAAAAAAAAAAAAAAAAAAAAAAAAAAAAAAAAAAAAAAAAAAAAAAAAAAAAAAAAAAAAAAAAAAAAAAAAAAAAAAAAAAAAAAAAAAAAAAAAAAAAAAAAAAAAAAAAAAAAAAAAAAAAAAAAAAAAAAAAAAAAAAAAAAAAAAAAAAAAAPZYQBQtkWYLLfqVst/2DKkdQ7lU1hdlfbSSPzjxQrQQzHO/Sl3R81diACjtYK389X7cNtIkh9xcug175eGRykM+bps=</c2pa:manifest></metadata><g transform="translate(0 8) scale(1.0)"><polyline points="82,8 24,44 48,60" fill="none" stroke="#2F6BFF" stroke-width="15" stroke-miterlimit="10"/><polyline points="52,40 76,56 18,92" fill="none" stroke="#191970" stroke-width="15" stroke-miterlimit="10"/></g><path d="M127.15212009538261 66.45518317797529Q123.06073271190115 66.45518317797529 119.2522642531975 65.46467266420984Q115.44379579449382 64.4741621504444 113.17722523303706 62.99795794493822L116.31795794493821 56.30261868632127Q118.51314112291351 57.68261868632126 121.54883481465424 58.535027097333625Q124.58452850639497 59.38743550834598 127.56073271190115 59.38743550834598Q130.7810210275309 59.38743550834598 132.13977780186428 58.605393453284194Q133.4985345761977 57.823351398222414 133.4985345761977 56.451675699111206Q133.4985345761977 55.33342943854325 132.44233037069154 54.75Q131.38612616518535 54.16657056145675 129.65181985692607 53.85985584218513Q127.91751354866682 53.5531411229135 125.83510513765447 53.265039020160415Q123.7526967266421 52.97693691740733 121.65839041838282 52.45503902016041Q119.56408411012356 51.933141122913504 117.8297778018643 50.92554953392586Q116.09547149360503 49.91795794493822 115.03926728809886 48.17846845870367Q113.98306308259268 46.438978972469116 113.98306308259268 43.65518317797529Q113.98306308259268 40.607591588987646 115.76445046607414 38.26861261651854Q117.5458378495556 35.929633644049424 120.87948948623455 34.59875677433341Q124.2131411229135 33.26787990461739 128.9004443962714 33.26787990461739Q132.24701495772817 33.26787990461739 135.6478918274442 33.982186212876655Q139.0487686971602 34.69649252113592 141.33913505311077 36.040288315629745L138.19840234120963 42.73562757424669Q135.85942336874052 41.3556275742467 133.50183177975288 40.8456275742467Q131.14424019076523 40.3356275742467 128.9356275742467 40.3356275742467Q125.77636028614785 40.3356275742467 124.33950140906134 41.17766962930848Q122.90264253197485 42.01971168437026 122.90264253197485 43.30759158898764Q122.90264253197485 44.49824626056796 123.95884673748103 45.1116756991112Q125.01505094298722 45.72510513765445 126.74935725124648 46.06802406243226Q128.48366355950574 46.41094298721006 130.5660719705181 46.69904508996315Q132.64848038153045 46.987147192716236 134.73088879254283 47.520942987210056Q136.81329720355518 48.054738781703875 138.54760351181443 49.044228267938436Q140.2819098200737 50.03371775417299 141.3381140255799 51.75510513765445Q142.39431823108606 53.476492521135924 142.39431823108606 56.22408411012356Q142.39431823108606 59.20028831562974 140.6067266420984 61.514960979839586Q138.81913505311078 63.82963364404942 135.41927921092565 65.14240841101235Q132.01942336874052 66.45518317797529 127.15212009538261 66.45518317797529Z" fill="#191970"/><path d="M160.19664860177758 66.45518317797529Q154.46657056145676 66.45518317797529 151.3020420550618 63.56532733579016Q148.13751354866682 60.67547149360503 148.13751354866682 54.909189247778016V26.56028831562974H157.49782570995015V54.752985042271845Q157.49782570995015 56.79604812486451 158.5612551484934 57.92568176891394Q159.62468458703663 59.05531541296337 161.47636028614784 59.05531541296337Q163.72321916323432 59.05531541296337 165.29664860177758 57.86568176891394L167.77636028614785 64.46175373943204Q166.36117710817254 65.47036635595057 164.35219813570342 65.96277476696292Q162.34321916323432 66.45518317797529 160.19664860177758 66.45518317797529ZM143.13065467158032 40.90774766962931V33.723063082592674H165.52117710817254V40.90774766962931Z" fill="#191970"/><path d="M191.65094298721007 66.0V59.70934532841969L191.08918924777802 58.29416215044439V47.03693691740733Q191.08918924777802 44.0214654238023 189.25714719271622 42.36321916323434Q187.42510513765444 40.704972902666384 183.61824626056796 40.704972902666384Q181.07240841101236 40.704972902666384 178.5751831779753 41.50358551918492Q176.07795794493822 42.30219813570345 174.31314112291352 43.68321916323434L170.97065467158032 37.168900932148276Q173.63342943854326 35.26028831562975 177.34569369174073 34.26408411012357Q181.0579579449382 33.26787990461739 184.8979579449382 33.26787990461739Q192.30803598525904 33.26787990461739 196.37876869716018 36.740144157814875Q200.44950140906136 40.21240841101236 200.44950140906136 47.56350747886408V66.0ZM181.84408411012356 66.45518317797529Q178.07751354866681 66.45518317797529 175.3775135486668 65.18379579449382Q172.6775135486668 63.91240841101236 171.24320724040754 61.6929189247778Q169.80890093214828 59.47342943854325 169.80890093214828 56.68963364404942Q169.80890093214828 53.83547149360503 171.2116756991112 51.6697778018643Q172.61445046607415 49.504084110123564 175.6729189247778 48.27357359635812Q178.73138738348146 47.043063082592674 183.65036635595058 47.043063082592674H192.19196401474096V52.496936917407325H184.68803598525906Q181.36950140906134 52.496936917407325 180.1441740732712 53.5670810752222Q178.91884673748103 54.63722523303707 178.91884673748103 56.3068588770865Q178.91884673748103 58.06233037069153 180.31380771732063 59.12006611749404Q181.7087686971602 60.177801864296555 184.15007804032084 60.177801864296555Q186.50759158898765 60.177801864296555 188.38357359635813 59.08386191198786Q190.2595556037286 57.989921959679165 191.08918924777802 55.79065467158031L192.5033513982224 60.13649252113592Q191.50612616518535 63.21722523303707 188.80510513765444 64.83620420550618Q186.10408411012355 66.45518317797529 181.84408411012356 66.45518317797529Z" fill="#191970"/><path d="M220.91664860177758 66.45518317797529Q215.18657056145673 66.45518317797529 212.02204205506177 63.56532733579016Q208.85751354866682 60.67547149360503 208.85751354866682 54.909189247778016V26.56028831562974H218.21782570995015V54.752985042271845Q218.21782570995015 56.79604812486451 219.2812551484934 57.92568176891394Q220.34468458703662 59.05531541296337 222.19636028614784 59.05531541296337Q224.44321916323435 59.05531541296337 226.01664860177758 57.86568176891394L228.49636028614785 64.46175373943204Q227.08117710817254 65.47036635595057 225.07219813570345 65.96277476696292Q223.06321916323432 66.45518317797529 220.91664860177758 66.45518317797529ZM203.85065467158032 40.90774766962931V33.723063082592674H226.24117710817256V40.90774766962931Z" fill="#191970"/><path d="M248.6035074788641 66.45518317797529Q243.0741621504444 66.45518317797529 238.93 64.30759158898763Q234.7858378495556 62.16 232.5068588770865 58.398612616518534Q230.2278799046174 54.63722523303707 230.2278799046174 49.849633644049426Q230.2278799046174 45.01445046607414 232.4587567743334 41.264960979839586Q234.68963364404942 37.515471493605034 238.59379579449381 35.39167569911121Q242.4979579449382 33.26787990461739 247.41591588987643 33.26787990461739Q252.1673032733579 33.26787990461739 255.96956752655538 35.278390418382834Q259.77183177975286 37.28890093214828 261.99030023845654 41.0326967266421Q264.2087686971602 44.77649252113592 264.2087686971602 49.99445046607414Q264.2087686971602 50.53342943854325 264.16687079991334 51.22240841101236Q264.1249729026664 51.91138738348147 264.0649729026664 52.48657056145675H237.82745935399956V47.0326967266421H259.10963364404944L255.49400606980274 48.66408411012357Q255.53021027530892 46.16481682202471 254.4962703230002 44.28985584218513Q253.46233037069152 42.41489486234555 251.66496097983958 41.357159115543034Q249.86759158898764 40.29942336874052 247.46350747886407 40.29942336874052Q245.0594233687405 40.29942336874052 243.23205397788857 41.357159115543034Q241.40468458703663 42.41489486234555 240.40074463472794 44.30795794493822Q239.39680468241926 46.201021027530885 239.39680468241926 48.772696726642096V50.23342943854325Q239.39680468241926 52.87649252113592 240.56264253197486 54.865249295469326Q241.72848038153046 56.854006069802736 243.8677476696293 57.92984391935833Q246.00701495772816 59.00568176891394 248.87869065683935 59.00568176891394Q251.4483243008888 59.00568176891394 253.38897897246912 58.22466074138305Q255.32963364404944 57.44363971385216 256.9858378495556 55.845393453284196L261.96599393019727 61.247591588987646Q259.71081075222196 63.791387383481464 256.36372967699975 65.12328528072837Q253.01664860177758 66.45518317797529 248.6035074788641 66.45518317797529Z" fill="#191970"/><path d="M265.17282549317144 66.0 285.3688 38.079456145675266 285.3421487101669 46.04520546282245 266.020917754173 18.959999999999994H278.35484188163883L291.7228928679818 37.81065614567527L286.562215477997 37.87785614567527L299.78311259484065 18.959999999999994H311.5805802731411L292.34044673748105 45.56205159332322V37.78514840667678L312.71022640364185 66.0H300.1619484066768L286.3073128983308 46.0591028831563L291.2802877086495 46.032451593323216L277.6539034901366 66.0Z" fill="#2F6BFF"/><path d="M331.6367158898764 66.45518317797529Q326.43116635595055 66.45518317797529 322.35890210275306 64.33138738348147Q318.2866378495556 62.20759158898765 315.97765887708647 58.44620420550618Q313.66867990461736 54.684816822024715 313.66867990461736 49.849633644049426Q313.66867990461736 44.97824626056796 315.97765887708647 41.246858877086495Q318.2866378495556 37.515471493605034 322.35890210275306 35.39167569911121Q326.43116635595055 33.26787990461739 331.6367158898764 33.26787990461739Q336.73161075222197 33.26787990461739 340.52095608064167 35.37722523303707Q344.31030140906137 37.48657056145676 346.07511823108604 41.43109906785172L338.86970093214825 45.360156080641666Q337.5600672880988 43.08015608064167 335.67371892477775 42.005849772382405Q333.7873705614567 40.93154346412313 331.5767158898764 40.93154346412313Q329.20781495772815 40.93154346412313 327.28424136137005 41.995483416431824Q325.3606677650119 43.05942336874052 324.24862570995015 45.04869065683937Q323.13658365488834 47.03795794493821 323.13658365488834 49.849633644049426Q323.13658365488834 52.66130934316063 324.24862570995015 54.662474528506394Q325.3606677650119 56.663639713852156 327.28424136137005 57.72757966616085Q329.20781495772815 58.79151961846954 331.5767158898764 58.79151961846954Q333.7873705614567 58.79151961846954 335.67371892477775 57.73531541296336Q337.5600672880988 56.67911120745718 338.86970093214825 54.36290700195101L346.07511823108604 58.29196401474095Q344.31030140906137 62.20028831562974 340.52095608064167 64.32773574680252Q336.73161075222197 66.45518317797529 331.6367158898764 66.45518317797529Z" fill="#191970"/><path d="M350.32035560372856 66.0V21.480000000000004H359.6806677650119V42.671387383481466L357.5629981357034 39.98379579449382Q359.30197710817254 36.698246260567956 362.5357729026664 34.98306308259267Q365.7695686971602 33.26787990461739 369.8981813136787 33.26787990461739Q373.75058972469105 33.26787990461739 376.7743855191849 34.7797778018643Q379.7981813136787 36.29167569911121 381.5500792109256 39.44116518534577Q383.30197710817254 42.59065467158032 383.30197710817254 47.53342943854325V66.0H373.9416649468892V48.932120095382615Q373.9416649468892 45.039423368740515 372.2280913505311 43.18825818339475Q370.51451775417297 41.33709299804899 367.42357476696293 41.33709299804899Q365.17467383481466 41.33709299804899 363.40730444396274 42.274828744851504Q361.6399350531108 43.21256449165402 360.66030140906133 45.12321916323434Q359.6806677650119 47.033873834814656 359.6806677650119 50.03693691740733V66.0Z" fill="#191970"/><path d="M410.33174298721 66.0V59.70934532841969L409.76998924777797 58.29416215044439V47.03693691740733Q409.76998924777797 44.0214654238023 407.9379471927162 42.36321916323434Q406.1059051376544 40.704972902666384 402.29904626056793 40.704972902666384Q399.75320841101234 40.704972902666384 397.2559831779753 41.50358551918492Q394.7587579449382 42.30219813570345 392.9939411229135 43.68321916323434L389.65145467158027 37.168900932148276Q392.31422943854324 35.26028831562975 396.0264936917407 34.26408411012357Q399.7387579449382 33.26787990461739 403.5787579449382 33.26787990461739Q410.988835985259 33.26787990461739 415.05956869716016 36.740144157814875Q419.1303014090613 40.21240841101236 419.1303014090613 47.56350747886408V66.0ZM400.52488411012354 66.45518317797529Q396.75831354866676 66.45518317797529 394.0583135486668 65.18379579449382Q391.3583135486668 63.91240841101236 389.9240072404075 61.6929189247778Q388.48970093214825 59.47342943854325 388.48970093214825 56.68963364404942Q388.48970093214825 53.83547149360503 389.8924756991112 51.6697778018643Q391.2952504660741 49.504084110123564 394.3537189247778 48.27357359635812Q397.41218738348147 47.043063082592674 402.33116635595053 47.043063082592674H410.87276401474094V52.496936917407325H403.368835985259Q400.0503014090613 52.496936917407325 398.82497407327116 53.5670810752222Q397.599646737481 54.63722523303707 397.599646737481 56.3068588770865Q397.599646737481 58.06233037069153 398.9946077173206 59.12006611749404Q400.3895686971602 60.177801864296555 402.83087804032084 60.177801864296555Q405.1883915889876 60.177801864296555 407.0643735963581 59.08386191198786Q408.94035560372856 57.989921959679165 409.76998924777797 55.79065467158031L411.1841513982224 60.13649252113592Q410.1869261651853 63.21722523303707 407.4859051376544 64.83620420550618Q404.7848841101235 66.45518317797529 400.52488411012354 66.45518317797529Z" fill="#191970"/><path d="M426.40035560372854 66.0V33.723063082592674H435.317892998049V42.671387383481466L433.6429981357034 39.98379579449382Q435.3819771081725 36.698246260567956 438.6157729026663 34.98306308259267Q441.8495686971602 33.26787990461739 445.9781813136787 33.26787990461739Q449.83058972469104 33.26787990461739 452.8543855191849 34.7797778018643Q455.87818131367874 36.29167569911121 457.6300792109256 39.44116518534577Q459.3819771081725 42.59065467158032 459.3819771081725 47.53342943854325V66.0H450.0216649468892V48.932120095382615Q450.0216649468892 45.039423368740515 448.3080913505311 43.18825818339475Q446.59451775417295 41.33709299804899 443.5035747669629 41.33709299804899Q441.25467383481464 41.33709299804899 439.48730444396267 42.274828744851504Q437.71993505311076 43.21256449165402 436.7403014090613 45.12321916323434Q435.7606677650119 47.033873834814656 435.7606677650119 50.03693691740733V66.0Z" fill="#191970"/><path d="M481.81977897246907 78.09518317797529Q477.2494126165185 78.09518317797529 473.0256168220247 76.98467266420984Q468.8018210275309 75.87416215044439 465.9590462605679 73.68934532841968L469.6863495339258 66.94743550834598Q471.75116635595055 68.62845653587686 474.88408528072836 69.62517125514849Q478.01700420550617 70.62188597442011 481.12765887708645 70.62188597442011Q486.08794719271623 70.62188597442011 488.34049976154347 68.39933340559288Q490.59305233037065 66.17678083676566 490.59305233037065 61.79065467158031V56.96701495772816L491.1930523303707 48.83065467158032L491.0358270973336 40.65809017992629V33.723063082592674H499.953364491654V60.6185345761977Q499.953364491654 69.57926728809885 495.25263177975285 73.83722523303706Q490.5518990678517 78.09518317797529 481.81977897246907 78.09518317797529ZM480.3745177541729 64.45342943854325Q475.9086799046174 64.45342943854325 472.25437359635805 62.50342943854325Q468.6000672880988 60.55342943854325 466.43437359635806 57.04963364404942Q464.26867990461733 53.5458378495556 464.26867990461733 48.83065467158032Q464.26867990461733 44.11547149360503 466.43437359635806 40.6116756991112Q468.6000672880988 37.107879904617384 472.25437359635805 35.18787990461739Q475.9086799046174 33.26787990461739 480.3745177541729 33.26787990461739Q484.48970093214825 33.26787990461739 487.58174298721 34.91167569911121Q490.6737850422718 36.555471493605026 492.42823550834595 40.01116518534576Q494.1826859744201 43.466858877086494 494.1826859744201 48.83065467158032Q494.1826859744201 54.19445046607414 492.42823550834595 57.65014415781487Q490.6737850422718 61.105837849555606 487.58174298721 62.779633644049426Q484.48970093214825 64.45342943854325 480.3745177541729 64.45342943854325ZM482.2367158898764 56.7897658790375Q484.7256168220247 56.7897658790375 486.6372925211359 55.78582592672881Q488.5489682202471 54.78188597442012 489.6310102753089 52.98451658356818Q490.71305233037066 51.18714719271624 490.71305233037066 48.83065467158032Q490.71305233037066 46.45036635595058 489.6310102753089 44.66489486234555Q488.5489682202471 42.87942336874052 486.6372925211359 41.90548341643182Q484.7256168220247 40.93154346412313 482.2367158898764 40.93154346412313Q479.8078149577281 40.93154346412313 477.8661392586169 41.90548341643182Q475.9244635595057 42.87942336874052 474.830523607197 44.66489486234555Q473.7365836548883 46.45036635595058 473.7365836548883 48.83065467158032Q473.7365836548883 51.18714719271624 474.830523607197 52.98451658356818Q475.9244635595057 54.78188597442012 477.8661392586169 55.78582592672881Q479.8078149577281 56.7897658790375 482.2367158898764 56.7897658790375Z" fill="#191970"/><path d="M523.4443074788641 66.45518317797529Q517.9149621504444 66.45518317797529 513.7708 64.30759158898763Q509.62663784955555 62.16 507.3476588770865 58.398612616518534Q505.06867990461734 54.63722523303707 505.06867990461734 49.849633644049426Q505.06867990461734 45.01445046607414 507.2995567743334 41.264960979839586Q509.5304336440494 37.515471493605034 513.4345957944938 35.39167569911121Q517.3387579449382 33.26787990461739 522.2567158898764 33.26787990461739Q527.0081032733578 33.26787990461739 530.8103675265554 35.278390418382834Q534.6126317797529 37.28890093214828 536.8311002384565 41.0326967266421Q539.0495686971602 44.77649252113592 539.0495686971602 49.99445046607414Q539.0495686971602 50.53342943854325 539.0076707999133 51.22240841101236Q538.9657729026663 51.91138738348147 538.9057729026664 52.48657056145675H512.6682593539996V47.0326967266421H533.9504336440494L530.3348060698027 48.66408411012357Q530.3710102753089 46.16481682202471 529.3370703230003 44.28985584218513Q528.3031303706915 42.41489486234555 526.5057609798396 41.357159115543034Q524.7083915889876 40.29942336874052 522.3043074788641 40.29942336874052Q519.9002233687405 40.29942336874052 518.0728539778886 41.357159115543034Q516.2454845870366 42.41489486234555 515.2415446347279 44.30795794493822Q514.2376046824193 46.201021027530885 514.2376046824193 48.772696726642096V50.23342943854325Q514.2376046824193 52.87649252113592 515.4034425319749 54.865249295469326Q516.5692803815305 56.854006069802736 518.7085476696293 57.92984391935833Q520.8478149577281 59.00568176891394 523.7194906568393 59.00568176891394Q526.2891243008887 59.00568176891394 528.229778972469 58.22466074138305Q530.1704336440494 57.44363971385216 531.8266378495556 55.845393453284196L536.8067939301973 61.247591588987646Q534.5516107522219 63.791387383481464 531.2045296769998 65.12328528072837Q527.8574486017776 66.45518317797529 523.4443074788641 66.45518317797529Z" fill="#191970"/><path d="M113.98242120704107 104.0 118.90211211232187 93.15H120.42947275775356L125.3622535624476 104.0H123.73603331936295L119.34612929589271 94.01322527242246H119.97236567476949L115.58246165129924 104.0ZM116.07288788767812 101.29236567476948 116.50277577535624 100.04230301760268H122.6038707041073L123.04684849119866 101.29236567476948Z" fill="#5B6378"/><path d="M126.91698281642917 104.0V95.79015150880134H128.33962426655492V98.00320201173513L128.099185875943 97.42001613579212Q128.50804547359598 96.6016343252305 129.34332072506288 96.15300806789605Q130.17859597652975 95.70438181056161 131.29733738474434 95.70438181056161Q132.3024272841576 95.70438181056161 133.06778688181058 96.09067676026822Q133.83314647946355 96.47697170997485 134.2742111274099 97.2667863579212Q134.71527577535625 98.05660100586756 134.71527577535625 99.2725V104.0H133.2271848281643V99.44266869237217Q133.2271848281643 98.24264647946353 132.6443984702431 97.63781517183571Q132.06161211232188 97.03298386420788 130.9986797988265 97.03298386420788Q130.2195676865046 97.03298386420788 129.6302363788768 97.3479697191953Q129.04090507124897 97.66295557418273 128.72298941743503 98.26658183151719Q128.40507376362112 98.87020808885164 128.40507376362112 99.7623090947192V104.0Z" fill="#5B6378"/><path d="M142.71630301760268 104.0V102.26366869237216L142.65085352053646 101.93471919530595V98.9704383906119Q142.65085352053646 98.02909597652976 142.09802776613577 97.51140507124896Q141.5452020117351 96.99371416596814 140.4491909052808 96.99371416596814Q139.70726969823974 96.99371416596814 139.01562929589272 97.2317197191953Q138.32398889354567 97.46972527242247 137.83625859178542 97.87409597652976L137.21347170997484 96.76698281642916Q137.85242120704106 96.25066261525566 138.7459156538139 95.97752221290864Q139.63941010058676 95.70438181056161 140.61694949706623 95.70438181056161Q142.29992728415758 95.70438181056161 143.219435875943 96.52864595557418Q144.1389444677284 97.35291010058675 144.1389444677284 99.04656768650462V104.0ZM140.0293202011735 104.08576969823973Q139.104140402347 104.08576969823973 138.41628080469405 103.78058989941324Q137.72842120704107 103.47541010058676 137.35590150880134 102.92464040234702Q136.9833818105616 102.37387070410729 136.9833818105616 101.66810100586756Q136.9833818105616 101.00297170997486 137.30044645850796 100.46236211232187Q137.61751110645432 99.9217525146689 138.34223030176025 99.59332271584242Q139.06694949706622 99.26489291701593 140.2804383906119 99.26489291701593H142.8868030176027V100.34478688181056H140.34347778709136Q139.24127577535626 100.34478688181056 138.8498293168483 100.71350303855826Q138.45838285834031 101.08221919530595 138.45838285834031 101.61333130762783Q138.45838285834031 102.22435352053647 138.9416242665549 102.58238987845768Q139.42486567476948 102.94042623637888 140.27802829002513 102.94042623637888Q141.11328080469406 102.94042623637888 141.74067676026823 102.56929997904443Q142.3680727158424 102.19817372170998 142.65085352053646 101.48347170997485L142.9367525146689 102.50963537300922Q142.6374323134954 103.24810708298408 141.89567676026823 103.6669383906119Q141.15392120704107 104.08576969823973 140.0293202011735 104.08576969823973Z" fill="#5B6378"/><path d="M147.05148281642917 104.0V92.499H148.53957376362112V104.0Z" fill="#5B6378"/><path d="M151.88100607711652 107.09276969823974Q151.2885565800503 107.09276969823974 150.7289974853311 106.90142979882648Q150.1694383906119 106.71008989941325 149.7784888935457 106.3405L150.41677577535626 105.2285666387259Q150.71609597652977 105.51720704107292 151.09223082564964 105.6734120913663Q151.4683656747695 105.82961714165968 151.88341617770328 105.82961714165968Q152.4200565800503 105.82961714165968 152.78033738474437 105.54872673931266Q153.1406181894384 105.26783633696563 153.45439899413245 104.56518482816429L153.96485959765297 103.43335352053646L154.10780909471922 103.23322422464375L157.34315150880136 95.79015150880134H158.79920305951384L154.81159094719197 104.82835352053647Q154.45164145012575 105.68879191114837 154.01126215423304 106.18755605616094Q153.57088285834033 106.68632020117352 153.0447338642079 106.88954494970662Q152.51858487007544 107.09276969823974 151.88100607711652 107.09276969823974ZM153.83051110645434 104.2621292958927 150.09019090528082 95.79015150880134H151.63787175188602L154.82085456831518 103.10232523051131Z" fill="#5B6378"/><path d="M163.17119698239733 104.08576969823973Q161.92462929589271 104.08576969823973 161.2453707041073 103.42546060352053Q160.5661121123219 102.76515150880134 160.5661121123219 101.5151343252305V93.98629191114837H162.05420305951384V101.463814124057Q162.05420305951384 102.11996563285834 162.38761871332775 102.47783633696562Q162.72103436714167 102.83570704107292 163.34377577535625 102.83570704107292Q164.03196668063705 102.83570704107292 164.49351718357084 102.45751613579212L164.9592252724225 103.52535959765298Q164.6278656747695 103.80676969823973 164.14925607711655 103.94626969823973Q163.67064647946356 104.08576969823973 163.17119698239733 104.08576969823973ZM159.16010100586757 97.01403436714166V95.79015150880134H164.41327577535625V97.01403436714166Z" fill="#5B6378"/><path d="M166.92248281642918 104.0V95.79015150880134H168.41057376362113V104.0ZM167.66652829002516 94.20196668063704Q167.23664040234704 94.20196668063704 166.9490166596815 93.92088788767812Q166.66139291701592 93.6398090947192 166.66139291701592 93.23610100586757Q166.66139291701592 92.82998281642917 166.9490166596815 92.55010907376362Q167.23664040234704 92.27023533109808 167.66652829002516 92.27023533109808Q168.09882627829003 92.27023533109808 168.3852449706622 92.53701917435038Q168.67166366303437 92.80380301760269 168.67166366303437 93.20992120704108Q168.67166366303437 93.62671919530595 168.3917899203688 93.9143429379715Q168.11191617770328 94.20196668063704 167.66652829002516 94.20196668063704Z" fill="#5B6378"/><path d="M174.9694383906119 104.08576969823973Q173.72012929589272 104.08576969823973 172.73725000000002 103.54688484911986Q171.75437070410732 103.008 171.19705605616096 102.06077525146688Q170.6397414082146 101.11355050293378 170.6397414082146 99.89387070410729Q170.6397414082146 98.66110100586756 171.19705605616096 97.72042120704108Q171.75437070410732 96.77974140821459 172.73725000000002 96.2420616093881Q173.72012929589272 95.70438181056161 174.9694383906119 95.70438181056161Q176.08614647946357 95.70438181056161 176.9622505238894 96.1476909052808Q177.8383545683152 96.591 178.3236747694887 97.46452829002514L177.19038181056163 98.18135456831517Q176.79083130762785 97.5851242665549 176.21114040234704 97.29596416596814Q175.63144949706623 97.00680406538139 174.95634849119867 97.00680406538139Q174.15346668063708 97.00680406538139 173.51522527242247 97.36174497066219Q172.8769838642079 97.716685875943 172.50895305951383 98.36508738474434Q172.1409222548198 99.01348889354568 172.1409222548198 99.89387070410729Q172.1409222548198 100.7742525146689 172.50895305951383 101.42265402347024Q172.8769838642079 102.07105553227159 173.51522527242247 102.42720148784576Q174.15346668063708 102.78334744341996 174.95634849119867 102.78334744341996Q175.63144949706623 102.78334744341996 176.21114040234704 102.49952724224644Q176.79083130762785 102.21570704107293 177.19038181056163 101.60879694048617L178.3236747694887 102.3256232187762Q177.8383545683152 103.18606160938809 176.9622505238894 103.63591565381391Q176.08614647946357 104.08576969823973 174.9694383906119 104.08576969823973Z" fill="#5B6378"/><path d="M182.7624888935457 104.08576969823973Q181.73362929589274 104.08576969823973 180.8091348491199 103.80849444677284Q179.88464040234706 103.53121919530595 179.3566010058676 103.12925859178542L179.98765758591787 101.95187573344509Q180.5132868818106 102.31801613579212 181.2882868818106 102.56377168901928Q182.0632868818106 102.80952724224643 182.86720808885167 102.80952724224643Q183.90051110645436 102.80952724224643 184.36343231349542 102.50987573344509Q184.8263535205365 102.21022422464375 184.8263535205365 101.69461211232188Q184.8263535205365 101.3043707041073 184.54494341994973 101.08892979882648Q184.26353331936298 100.87348889354568 183.80146311818947 100.7606883906119Q183.33939291701597 100.64788788767812 182.78311766554907 100.56556768650461Q182.22684241408217 100.48324748533109 181.67056716261527 100.35270253562447Q181.1142919111484 100.22215758591786 180.65222170997487 99.97777273679799Q180.19015150880136 99.73338788767812 179.9087414082146 99.305413139145Q179.62733130762786 98.8774383906119 179.62733130762786 98.17166869237217Q179.62733130762786 97.43282020117351 180.04618535205367 96.87619090528081Q180.46503939647948 96.3195616093881 181.23023334031853 96.01197170997486Q181.9954272841576 95.70438181056161 183.05287678122383 95.70438181056161Q183.86232627829006 95.70438181056161 184.68900052388938 95.90295201173512Q185.51567476948873 96.10152221290863 186.04371416596817 96.44734241408214L185.41265758591788 97.62472527242247Q184.8536181894384 97.26340507124895 184.24843283738477 97.12201466890193Q183.64324748533113 96.9806242665549 183.03978688181058 96.9806242665549Q182.06262426655493 96.9806242665549 181.58368336127413 97.29577577535625Q181.10474245599332 97.61092728415758 181.10474245599332 98.10621919530595Q181.10474245599332 98.52505050293378 181.38615255658007 98.74944645850796Q181.66756265716683 98.97384241408214 182.12963285834036 99.10093786672255Q182.59170305951386 99.22803331936295 183.14797831098076 99.31035352053647Q183.70425356244763 99.39267372170997 184.25932376362115 99.5232186714166Q184.81439396479468 99.65376362112322 185.27646416596818 99.89039847024308Q185.73853436714168 100.12703331936295 186.01994446772844 100.54605301760267Q186.3013545683152 100.96507271584241 186.3013545683152 101.65534241408214Q186.3013545683152 102.40383130762783 185.87113537300922 102.94857575440068Q185.4409161777033 103.49332020117352 184.65126718357084 103.78954494970662Q183.86161818943842 104.08576969823973 182.7624888935457 104.08576969823973Z" fill="#5B6378"/><path d="" fill="#5B6378"/><path d="" fill="#5B6378"/><path d="M197.190533319363 107.007V92.499H198.56081517183574V107.007Z" fill="#5B6378"/><path d="" fill="#5B6378"/><path d="" fill="#5B6378"/><path d="M210.629033319363 104.0V93.15H215.19467979882654Q216.94135959765302 93.15 218.26058434618614 93.83561515088013Q219.57980909471922 94.52123030176027 220.31898889354574 95.73918535205365Q221.05816869237222 96.95714040234702 221.05816869237222 98.575Q221.05816869237222 100.19285959765297 220.31898889354574 101.41081464794635Q219.57980909471922 102.62876969823974 218.26058434618614 103.31438484911988Q216.94135959765302 104.0 215.19467979882654 104.0ZM212.16948386420793 102.65830804694049H215.11132020117356Q216.4556626152557 102.65830804694049 217.4379994761107 102.1423418901928Q218.42033633696568 101.6263757334451 218.96248229253985 100.70724392288349Q219.50462824811405 99.78811211232188 219.50462824811405 98.575Q219.50462824811405 97.34879798826488 218.96248229253985 96.43621112740989Q218.42033633696568 95.5236242665549 217.4379994761107 95.00765810980721Q216.4556626152557 94.49169195305952 215.11132020117356 94.49169195305952H212.16948386420793Z" fill="#5B6378"/><path d="M228.46230301760272 104.0V102.26366869237216L228.3968535205365 101.93471919530595V98.9704383906119Q228.3968535205365 98.02909597652976 227.8440277661358 97.51140507124896Q227.29120201173515 96.99371416596814 226.19519090528084 96.99371416596814Q225.45326969823978 96.99371416596814 224.76162929589276 97.2317197191953Q224.0699888935457 97.46972527242247 223.58225859178546 97.87409597652976L222.95947170997488 96.76698281642916Q223.5984212070411 96.25066261525566 224.49191565381395 95.97752221290864Q225.3854101005868 95.70438181056161 226.36294949706627 95.70438181056161Q228.0459272841576 95.70438181056161 228.96543587594303 96.52864595557418Q229.88494446772845 97.35291010058675 229.88494446772845 99.04656768650462V104.0ZM225.77532020117354 104.08576969823973Q224.85014040234705 104.08576969823973 224.1622808046941 103.78058989941324Q223.4744212070411 103.47541010058676 223.10190150880138 102.92464040234702Q222.72938181056165 102.37387070410729 222.72938181056165 101.66810100586756Q222.72938181056165 101.00297170997486 223.046446458508 100.46236211232187Q223.36351110645435 99.9217525146689 224.0882303017603 99.59332271584242Q224.81294949706626 99.26489291701593 226.02643839061193 99.26489291701593H228.63280301760273V100.34478688181056H226.0894777870914Q224.9872757753563 100.34478688181056 224.59582931684832 100.71350303855826Q224.20438285834035 101.08221919530595 224.20438285834035 101.61333130762783Q224.20438285834035 102.22435352053647 224.68762426655493 102.58238987845768Q225.17086567476952 102.94042623637888 226.02402829002517 102.94042623637888Q226.8592808046941 102.94042623637888 227.48667676026827 102.56929997904443Q228.11407271584244 102.19817372170998 228.3968535205365 101.48347170997485L228.68275251466895 102.50963537300922Q228.38343231349543 103.24810708298408 227.64167676026827 103.6669383906119Q226.8999212070411 104.08576969823973 225.77532020117354 104.08576969823973Z" fill="#5B6378"/><path d="M235.61819698239736 104.08576969823973Q234.37162929589275 104.08576969823973 233.69237070410733 103.42546060352053Q233.01311211232192 102.76515150880134 233.01311211232192 101.5151343252305V93.98629191114837H234.50120305951387V101.463814124057Q234.50120305951387 102.11996563285834 234.83461871332779 102.47783633696562Q235.1680343671417 102.83570704107292 235.79077577535628 102.83570704107292Q236.4789666806371 102.83570704107292 236.94051718357088 102.45751613579212L237.40622527242252 103.52535959765298Q237.07486567476954 103.80676969823973 236.59625607711655 103.94626969823973Q236.1176464794636 104.08576969823973 235.61819698239736 104.08576969823973ZM231.6071010058676 97.01403436714166V95.79015150880134H236.86027577535629V97.01403436714166Z" fill="#5B6378"/><path d="M244.45830301760273 104.0V102.26366869237216L244.3928535205365 101.93471919530595V98.9704383906119Q244.3928535205365 98.02909597652976 243.84002776613585 97.51140507124896Q243.28720201173516 96.99371416596814 242.19119090528085 96.99371416596814Q241.4492696982398 96.99371416596814 240.75762929589274 97.2317197191953Q240.06598889354572 97.46972527242247 239.57825859178547 97.87409597652976L238.95547170997492 96.76698281642916Q239.5944212070411 96.25066261525566 240.48791565381396 95.97752221290864Q241.3814101005868 95.70438181056161 242.35894949706628 95.70438181056161Q244.04192728415762 95.70438181056161 244.96143587594304 96.52864595557418Q245.88094446772845 97.35291010058675 245.88094446772845 99.04656768650462V104.0ZM241.77132020117355 104.08576969823973Q240.84614040234706 104.08576969823973 240.15828080469407 103.78058989941324Q239.4704212070411 103.47541010058676 239.09790150880139 102.92464040234702Q238.72538181056166 102.37387070410729 238.72538181056166 101.66810100586756Q238.72538181056166 101.00297170997486 239.042446458508 100.46236211232187Q239.35951110645436 99.9217525146689 240.08423030176033 99.59332271584242Q240.80894949706627 99.26489291701593 242.02243839061194 99.26489291701593H244.62880301760273V100.34478688181056H242.0854777870914Q240.9832757753563 100.34478688181056 240.59182931684833 100.71350303855826Q240.20038285834036 101.08221919530595 240.20038285834036 101.61333130762783Q240.20038285834036 102.22435352053647 240.68362426655494 102.58238987845768Q241.16686567476953 102.94042623637888 242.0200282900252 102.94042623637888Q242.8552808046941 102.94042623637888 243.48267676026828 102.56929997904443Q244.11007271584245 102.19817372170998 244.3928535205365 101.48347170997485L244.67875251466896 102.50963537300922Q244.37943231349544 103.24810708298408 243.63767676026828 103.6669383906119Q242.8959212070411 104.08576969823973 241.77132020117355 104.08576969823973Z" fill="#5B6378"/><path d="" fill="#5B6378"/><path d="" fill="#5B6378"/><path d="M257.656033319363 107.007V92.499H259.0263151718358V107.007Z" fill="#5B6378"/><path d="" fill="#5B6378"/><path d="" fill="#5B6378"/><path d="M274.2555393964795 104.12503939647947Q273.0120898994133 104.12503939647947 271.88075555322723 103.74339899413243Q270.7494212070411 103.36175859178542 270.10220201173513 102.76070808885163L270.67262929589276 101.55128583403186Q271.2888484911987 102.09033633696563 272.25105354149207 102.44993178960604Q273.21325859178546 102.80952724224643 274.25312929589273 102.80952724224643Q275.1955111064544 102.80952724224643 275.7836373637888 102.58874643755239Q276.37176362112325 102.36796563285834 276.6509292749372 101.98788432523051Q276.9300949287511 101.60780301760268 276.9300949287511 101.13765150880134Q276.9300949287511 100.57208989941324 276.5711848281643 100.23023889354567Q276.21227472757755 99.88838788767812 275.6315444258173 99.68258738474435Q275.050814124057 99.47678688181057 274.3484939228835 99.31817173093043Q273.64617372171 99.15955658005029 272.9426484702431 98.95392173093043Q272.23912321877623 98.74828688181056 271.65839291701593 98.41985708298407Q271.0776626152557 98.09142728415759 270.71875251466895 97.54479243503772Q270.35984241408215 96.99815758591785 270.35984241408215 96.13256768650461Q270.35984241408215 95.28866869237217 270.80504191114835 94.58358434618609Q271.2502414082146 93.8785 272.17284545264044 93.45173030176028Q273.0954494970662 93.02496060352054 274.5235282900252 93.02496060352054Q275.47006768650465 93.02496060352054 276.39990203269076 93.27657575440068Q277.3297363788768 93.52819090528081 278.0103656747695 93.99078080469405L277.4995282900252 95.22052326068734Q276.7961686923722 94.76620305951383 276.0187585917854 94.5533379086337Q275.24134849119866 94.34047275775356 274.51284849119867 94.34047275775356Q273.60387678122385 94.34047275775356 273.01695557418276 94.57554851215423Q272.4300343671417 94.8106242665549 272.15861871332777 95.19725052388935Q271.88720305951387 95.58387678122381 271.88720305951387 96.06952829002515Q271.88720305951387 96.6375 272.2461131601006 96.97935100586756Q272.60502326068735 97.32120201173512 273.18575356244764 97.52045756496227Q273.7664838642079 97.71971311818943 274.47000911567477 97.88487321877619Q275.1735343671417 98.05003331936295 275.8758545683152 98.25032826906957Q276.5781747694887 98.4506232187762 277.158905071249 98.77250806789607Q277.73963537300926 99.09439291701592 278.098545473596 99.63861766554903Q278.45745557418275 100.18284241408215 278.45745557418275 101.0329323134954Q278.45745557418275 101.86374140821458 278.0045060771165 102.56882575440068Q277.5515565800503 103.27391010058676 276.6187924350378 103.6994747485331Q275.6860282900252 104.12503939647947 274.2555393964795 104.12503939647947Z" fill="#5B6378"/><path d="M283.48219698239734 104.08576969823973Q282.23562929589275 104.08576969823973 281.55637070410734 103.42546060352053Q280.8771121123219 102.76515150880134 280.8771121123219 101.5151343252305V93.98629191114837H282.3652030595139V101.463814124057Q282.3652030595139 102.11996563285834 282.6986187133278 102.47783633696562Q283.0320343671417 102.83570704107292 283.6547757753563 102.83570704107292Q284.3429666806371 102.83570704107292 284.80451718357085 102.45751613579212L285.2702252724225 103.52535959765298Q284.93886567476954 103.80676969823973 284.4602560771166 103.94626969823973Q283.98164647946356 104.08576969823973 283.48219698239734 104.08576969823973ZM279.47110100586764 97.01403436714166V95.79015150880134H284.7242757753563V97.01403436714166Z" fill="#5B6378"/><path d="M287.2334828164292 104.0V95.79015150880134H288.65612426655497V98.01974140821459L288.5073151718358 97.46273533109807Q288.85899497066225 96.60508382229673 289.659655071249 96.15473281642917Q290.46031517183576 95.70438181056161 291.64554547359603 95.70438181056161V97.15320305951383Q291.5515060771166 97.14011316010058 291.469351529757 97.13356821039396Q291.38719698239737 97.12702326068734 291.3038373847444 97.12702326068734Q290.11104547359605 97.12702326068734 289.4163096186086 97.83983487007544Q288.72157376362117 98.55264647946353 288.72157376362117 99.91352829002514V104.0Z" fill="#5B6378"/><path d="M298.8323030176027 104.0V102.26366869237216L298.76685352053653 101.93471919530595V98.9704383906119Q298.76685352053653 98.02909597652976 298.2140277661358 97.51140507124896Q297.66120201173516 96.99371416596814 296.5651909052809 96.99371416596814Q295.82326969823976 96.99371416596814 295.1316292958927 97.2317197191953Q294.4399888935457 97.46972527242247 293.95225859178544 97.87409597652976L293.3294717099749 96.76698281642916Q293.9684212070411 96.25066261525566 294.861915653814 95.97752221290864Q295.7554101005868 95.70438181056161 296.7329494970663 95.70438181056161Q298.41592728415765 95.70438181056161 299.33543587594306 96.52864595557418Q300.2549444677285 97.35291010058675 300.2549444677285 99.04656768650462V104.0ZM296.14532020117355 104.08576969823973Q295.22014040234706 104.08576969823973 294.5322808046941 103.78058989941324Q293.84442120704114 103.47541010058676 293.47190150880135 102.92464040234702Q293.0993818105616 102.37387070410729 293.0993818105616 101.66810100586756Q293.0993818105616 101.00297170997486 293.416446458508 100.46236211232187Q293.7335111064544 99.9217525146689 294.4582303017603 99.59332271584242Q295.18294949706626 99.26489291701593 296.39643839061193 99.26489291701593H299.00280301760273V100.34478688181056H296.45947778709143Q295.3572757753563 100.34478688181056 294.9658293168483 100.71350303855826Q294.57438285834036 101.08221919530595 294.57438285834036 101.61333130762783Q294.57438285834036 102.22435352053647 295.05762426655497 102.58238987845768Q295.5408656747695 102.94042623637888 296.3940282900252 102.94042623637888Q297.2292808046941 102.94042623637888 297.8566767602683 102.56929997904443Q298.48407271584244 102.19817372170998 298.76685352053653 101.48347170997485L299.05275251466895 102.50963537300922Q298.7534323134954 103.24810708298408 298.0116767602683 103.6669383906119Q297.26992120704114 104.08576969823973 296.14532020117355 104.08576969823973Z" fill="#5B6378"/><path d="M305.9881969823973 104.08576969823973Q304.7416292958927 104.08576969823973 304.0623707041073 103.42546060352053Q303.3831121123219 102.76515150880134 303.3831121123219 101.5151343252305V93.98629191114837H304.87120305951385V101.463814124057Q304.87120305951385 102.11996563285834 305.20461871332776 102.47783633696562Q305.5380343671417 102.83570704107292 306.1607757753563 102.83570704107292Q306.8489666806371 102.83570704107292 307.3105171835708 102.45751613579212L307.7762252724225 103.52535959765298Q307.4448656747695 103.80676969823973 306.96625607711655 103.94626969823973Q306.48764647946354 104.08576969823973 305.9881969823973 104.08576969823973ZM301.9771010058676 97.01403436714166V95.79015150880134H307.2302757753563V97.01403436714166Z" fill="#5B6378"/><path d="M313.3951181894384 104.08576969823973Q312.0755393964795 104.08576969823973 311.07836515088013 103.54688484911986Q310.08119090528083 103.008 309.5292161567477 102.0595702011735Q308.9772414082146 101.11114040234702 308.9772414082146 99.89387070410729Q308.9772414082146 98.67419090528081 309.51010100586757 97.72817120704107Q310.04296060352056 96.78215150880133 310.9793398994133 96.24326665968147Q311.915719195306 95.70438181056161 313.1006181894384 95.70438181056161Q314.28551718357085 95.70438181056161 315.2022616303437 96.2343116093881Q316.1190060771165 96.76424140821459 316.6399808256497 97.71560100586757Q317.16095557418276 98.66696060352054 317.16095557418276 99.93417979882649Q317.16095557418276 100.02821919530595 317.1544106244761 100.15498334031852Q317.1478656747695 100.2817474853311 317.1347757753563 100.39128688181056H310.14257376362116V99.31139291701592H316.3490505029338L315.75381412405704 99.6878818105616Q315.76690402347026 98.89567979882649 315.4221232187762 98.28120808885163Q315.0773424140822 97.66673637887678 314.48026110645435 97.31713537300922Q313.8831797988265 96.96753436714167 313.1006181894384 96.96753436714167Q312.3204666806371 96.96753436714167 311.71563537300926 97.31713537300922Q311.11080406538144 97.66673637887678 310.7737732606874 98.28775303855826Q310.43674245599334 98.90876969823974 310.43674245599334 99.72715150880134V99.97241010058676Q310.43674245599334 100.79802221290863 310.8125232606874 101.43453887259011Q311.18830406538143 102.07105553227159 311.8682252724225 102.42720148784576Q312.5481464794636 102.78334744341996 313.43438788767816 102.78334744341996Q314.16184849119867 102.78334744341996 314.7647893964795 102.53879694048618Q315.3677303017603 102.29424643755239 315.8089606035206 101.79205553227159L316.6280959765298 102.75517979882649Q316.0749161777033 103.40617979882649 315.2475565800503 103.74597474853311Q314.42019698239733 104.08576969823973 313.3951181894384 104.08576969823973Z" fill="#5B6378"/><path d="M322.97100000000006 107.09276969823974Q321.8467303017603 107.09276969823974 320.7834212070411 106.78208434618608Q319.72011211232194 106.47139899413244 319.04189291701596 105.87757879295893L319.7693989941325 104.73119593461861Q320.3370393964795 105.2178868398994 321.1764494970663 105.50411714165968Q322.01585959765305 105.79034744341995 322.9186404023471 105.79034744341995Q324.37975251466895 105.79034744341995 325.0650136211233 105.11283633696563Q325.75027472757756 104.43532523051131 325.75027472757756 103.04552221290864V101.297185875943L325.9052747275776 99.67342120704107L325.8157242246438 98.0365666387259V95.79015150880134H327.2383656747695V102.88121311818944Q327.2383656747695 105.05433130762783 326.152491932104 106.07355050293378Q325.06661818943843 107.09276969823974 322.97100000000006 107.09276969823974ZM322.790859597653 103.65796060352054Q321.59632020117357 103.65796060352054 320.6527106035206 103.15421060352054Q319.7091010058676 102.65046060352054 319.1636712070411 101.7538707041073Q318.6182414082146 100.85728080469404 318.6182414082146 99.67342120704107Q318.6182414082146 98.48715150880135 319.1636712070411 97.59176665968147Q319.7091010058676 96.6963818105616 320.6527106035206 96.20038181056161Q321.59632020117357 95.70438181056161 322.790859597653 95.70438181056161Q323.84382020117357 95.70438181056161 324.7064803017603 96.1349323134954Q325.56914040234705 96.56548281642917 326.0925252514669 97.4477777661358Q326.6159101005868 98.33007271584242 326.6159101005868 99.67342120704107Q326.6159101005868 101.01435959765297 326.0925252514669 101.89785959765297Q325.56914040234705 102.78135959765298 324.7064803017603 103.21966010058676Q323.84382020117357 103.65796060352054 322.790859597653 103.65796060352054ZM322.94793839061197 102.35553834870075Q323.7794101005868 102.35553834870075 324.416446458508 102.01609744341994Q325.0534828164292 101.67665653813914 325.41496867141666 101.07113987845767Q325.77645452640405 100.46562321877619 325.77645452640405 99.67342120704107Q325.77645452640405 98.8788090947192 325.41496867141666 98.27570253562448Q325.0534828164292 97.67259597652976 324.416446458508 97.33970002095558Q323.7794101005868 97.00680406538139 322.94793839061197 97.00680406538139Q322.1319666806371 97.00680406538139 321.48718032271586 97.33970002095558Q320.84239396479467 97.67259597652976 320.4809081098073 98.27570253562448Q320.1194222548198 98.8788090947192 320.1194222548198 99.67342120704107Q320.1194222548198 100.46562321877619 320.4809081098073 101.07113987845767Q320.84239396479467 101.67665653813914 321.48718032271586 102.01609744341994Q322.1319666806371 102.35553834870075 322.94793839061197 102.35553834870075Z" fill="#5B6378"/><path d="M330.5805060771166 107.09276969823974Q329.98805658005034 107.09276969823974 329.42849748533115 106.90142979882648Q328.86893839061196 106.71008989941325 328.4779888935457 106.3405L329.1162757753563 105.2285666387259Q329.4155959765298 105.51720704107292 329.79173082564967 105.6734120913663Q330.16786567476953 105.82961714165968 330.58291617770334 105.82961714165968Q331.11955658005036 105.82961714165968 331.4798373847444 105.54872673931266Q331.84011818943844 105.26783633696563 332.15389899413253 104.56518482816429L332.66435959765306 103.43335352053646L332.80730909471924 103.23322422464375L336.0426515088014 95.79015150880134H337.4987030595139L333.51109094719203 104.82835352053647Q333.1511414501258 105.68879191114837 332.71076215423307 106.18755605616094Q332.2703828583404 106.68632020117352 331.74423386420796 106.88954494970662Q331.21808487007553 107.09276969823974 330.5805060771166 107.09276969823974ZM332.53001110645437 104.2621292958927 328.78969090528085 95.79015150880134H330.33737175188605L333.5203545683152 103.10232523051131Z" fill="#5B6378"/><path d="" fill="#5B6378"/><path d="" fill="#5B6378"/><path d="M347.91253331936304 107.007V92.499H349.2828151718358V107.007Z" fill="#5B6378"/><path d="" fill="#5B6378"/><path d="" fill="#5B6378"/><path d="M363.4993424140822 104.0V94.49169195305952H359.78350000000006V93.15H368.7556353730093V94.49169195305952H365.03979295892714V104.0Z" fill="#5B6378"/><path d="M370.3909828164292 104.0V95.79015150880134H371.81362426655494V98.01974140821459L371.66481517183576 97.46273533109807Q372.0164949706622 96.60508382229673 372.817155071249 96.15473281642917Q373.61781517183573 95.70438181056161 374.803045473596 95.70438181056161V97.15320305951383Q374.70900607711656 97.14011316010058 374.62685152975695 97.13356821039396Q374.54469698239734 97.12702326068734 374.46133738474435 97.12702326068734Q373.268545473596 97.12702326068734 372.5738096186086 97.83983487007544Q371.87907376362114 98.55264647946353 371.87907376362114 99.91352829002514V104.0Z" fill="#5B6378"/><path d="M381.9898030176027 104.0V102.26366869237216L381.9243535205365 101.93471919530595V98.9704383906119Q381.9243535205365 98.02909597652976 381.37152776613584 97.51140507124896Q380.8187020117351 96.99371416596814 379.72269090528084 96.99371416596814Q378.9807696982397 96.99371416596814 378.28912929589274 97.2317197191953Q377.5974888935457 97.46972527242247 377.1097585917854 97.87409597652976L376.48697170997485 96.76698281642916Q377.1259212070411 96.25066261525566 378.0194156538139 95.97752221290864Q378.91291010058677 95.70438181056161 379.89044949706624 95.70438181056161Q381.5734272841576 95.70438181056161 382.49293587594303 96.52864595557418Q383.41244446772845 97.35291010058675 383.41244446772845 99.04656768650462V104.0ZM379.3028202011735 104.08576969823973Q378.377640402347 104.08576969823973 377.68978080469407 103.78058989941324Q377.0019212070411 103.47541010058676 376.6294015088014 102.92464040234702Q376.2568818105616 102.37387070410729 376.2568818105616 101.66810100586756Q376.2568818105616 101.00297170997486 376.573946458508 100.46236211232187Q376.89101110645436 99.9217525146689 377.6157303017603 99.59332271584242Q378.34044949706623 99.26489291701593 379.5539383906119 99.26489291701593H382.1603030176027V100.34478688181056H379.6169777870914Q378.51477577535627 100.34478688181056 378.1233293168483 100.71350303855826Q377.7318828583403 101.08221919530595 377.7318828583403 101.61333130762783Q377.7318828583403 102.22435352053647 378.2151242665549 102.58238987845768Q378.6983656747695 102.94042623637888 379.55152829002515 102.94042623637888Q380.38678080469407 102.94042623637888 381.01417676026824 102.56929997904443Q381.6415727158424 102.19817372170998 381.9243535205365 101.48347170997485L382.2102525146689 102.50963537300922Q381.9109323134954 103.24810708298408 381.1691767602682 103.6669383906119Q380.4274212070411 104.08576969823973 379.3028202011735 104.08576969823973Z" fill="#5B6378"/><path d="M389.7150393964795 104.08576969823973Q388.5229101005867 104.08576969823973 387.5805055532271 103.55997474853311Q386.63810100586755 103.03417979882649 386.10042120704105 102.09229494970663Q385.56274140821455 101.15041010058675 385.56274140821455 99.89387070410729Q385.56274140821455 98.63492120704107 386.10042120704105 97.69544645850797Q386.63810100586755 96.75597170997486 387.5805055532271 96.23017676026824Q388.5229101005867 95.70438181056161 389.7150393964795 95.70438181056161Q390.75008989941324 95.70438181056161 391.59191010058674 96.17127221290863Q392.43373030176025 96.63816261525565 392.9374803017603 97.56454746437552Q393.44123030176024 98.49093231349539 393.44123030176024 99.89387070410729Q393.44123030176024 101.28130909471919 392.9505702011735 102.21664899413244Q392.45991010058674 103.15198889354568 391.61808989941323 103.6188792958927Q390.77626969823973 104.08576969823973 389.7150393964795 104.08576969823973ZM389.83284849119866 102.78334744341996Q390.6202303017603 102.78334744341996 391.24417676026826 102.42720148784576Q391.8681232187762 102.07105553227159 392.23494897317687 101.41490402347024Q392.60177472757755 100.7587525146689 392.60177472757755 99.89387070410729Q392.60177472757755 99.01348889354568 392.23494897317687 98.36508738474434Q391.8681232187762 97.716685875943 391.24417676026826 97.36174497066219Q390.6202303017603 97.00680406538139 389.83284849119866 97.00680406538139Q389.04546668063705 97.00680406538139 388.42272527242244 97.36174497066219Q387.7999838642079 97.716685875943 387.43195305951383 98.36508738474434Q387.0639222548198 99.01348889354568 387.0639222548198 99.89387070410729Q387.0639222548198 100.7587525146689 387.43195305951383 101.41490402347024Q387.7999838642079 102.07105553227159 388.42272527242244 102.42720148784576Q389.04546668063705 102.78334744341996 389.83284849119866 102.78334744341996ZM392.64104442581726 104.0V101.78803436714166L392.73059492875103 99.8783707041073L392.57559492875106 97.96870704107293V92.499H394.063685875943V104.0Z" fill="#5B6378"/><path d="M397.05098281642915 104.0V95.79015150880134H398.5390737636211V104.0ZM397.79502829002513 94.20196668063704Q397.36514040234704 94.20196668063704 397.07751665968146 93.92088788767812Q396.78989291701595 93.6398090947192 396.78989291701595 93.23610100586757Q396.78989291701595 92.82998281642917 397.07751665968146 92.55010907376362Q397.36514040234704 92.27023533109808 397.79502829002513 92.27023533109808Q398.22732627829004 92.27023533109808 398.5137449706622 92.53701917435038Q398.80016366303437 92.80380301760269 398.80016366303437 93.20992120704108Q398.80016366303437 93.62671919530595 398.5202899203688 93.9143429379715Q398.24041617770325 94.20196668063704 397.79502829002513 94.20196668063704Z" fill="#5B6378"/><path d="M401.5304828164291 104.0V95.79015150880134H402.9531242665549V98.00320201173513L402.71268587594295 97.42001613579212Q403.1215454735959 96.6016343252305 403.9568207250628 96.15300806789605Q404.7920959765297 95.70438181056161 405.9108373847443 95.70438181056161Q406.91592728415753 95.70438181056161 407.6812868818105 96.09067676026822Q408.4466464794635 96.47697170997485 408.88771112740983 97.2667863579212Q409.32877577535623 98.05660100586756 409.32877577535623 99.2725V104.0H407.8406848281642V99.44266869237217Q407.8406848281642 98.24264647946353 407.25789847024305 97.63781517183571Q406.67511211232187 97.03298386420788 405.61217979882645 97.03298386420788Q404.8330676865046 97.03298386420788 404.24373637887675 97.3479697191953Q403.6544050712489 97.66295557418273 403.336489417435 98.26658183151719Q403.0185737636211 98.87020808885164 403.0185737636211 99.7623090947192V104.0Z" fill="#5B6378"/><path d="M415.8315 107.09276969823974Q414.70723030176026 107.09276969823974 413.6439212070411 106.78208434618608Q412.5806121123219 106.47139899413244 411.9023929170159 105.87757879295893L412.6298989941324 104.73119593461861Q413.19753939647944 105.2178868398994 414.0369494970662 105.50411714165968Q414.87635959765294 105.79034744341995 415.779140402347 105.79034744341995Q417.2402525146689 105.79034744341995 417.9255136211232 105.11283633696563Q418.6107747275775 104.43532523051131 418.6107747275775 103.04552221290864V101.297185875943L418.76577472757754 99.67342120704107L418.67622422464376 98.0365666387259V95.79015150880134H420.09886567476946V102.88121311818944Q420.09886567476946 105.05433130762783 419.0129919321039 106.07355050293378Q417.9271181894384 107.09276969823974 415.8315 107.09276969823974ZM415.65135959765297 103.65796060352054Q414.4568202011735 103.65796060352054 413.5132106035205 103.15421060352054Q412.5696010058675 102.65046060352054 412.02417120704104 101.7538707041073Q411.47874140821455 100.85728080469404 411.47874140821455 99.67342120704107Q411.47874140821455 98.48715150880135 412.02417120704104 97.59176665968147Q412.5696010058675 96.6963818105616 413.5132106035205 96.20038181056161Q414.4568202011735 95.70438181056161 415.65135959765297 95.70438181056161Q416.7043202011735 95.70438181056161 417.5669803017603 96.1349323134954Q418.429640402347 96.56548281642917 418.9530252514669 97.4477777661358Q419.47641010058675 98.33007271584242 419.47641010058675 99.67342120704107Q419.47641010058675 101.01435959765297 418.9530252514669 101.89785959765297Q418.429640402347 102.78135959765298 417.5669803017603 103.21966010058676Q416.7043202011735 103.65796060352054 415.65135959765297 103.65796060352054ZM415.8084383906119 102.35553834870075Q416.63991010058675 102.35553834870075 417.27694645850795 102.01609744341994Q417.91398281642915 101.67665653813914 418.27546867141655 101.07113987845767Q418.636954526404 100.46562321877619 418.636954526404 99.67342120704107Q418.636954526404 98.8788090947192 418.27546867141655 98.27570253562448Q417.91398281642915 97.67259597652976 417.27694645850795 97.33970002095558Q416.63991010058675 97.00680406538139 415.8084383906119 97.00680406538139Q414.99246668063705 97.00680406538139 414.34768032271586 97.33970002095558Q413.7028939647946 97.67259597652976 413.34140810980716 98.27570253562448Q412.97992225481977 98.8788090947192 412.97992225481977 99.67342120704107Q412.97992225481977 100.46562321877619 413.34140810980716 101.07113987845767Q413.7028939647946 101.67665653813914 414.34768032271586 102.01609744341994Q414.99246668063705 102.35553834870075 415.8084383906119 102.35553834870075Z" fill="#5B6378"/><path d="" fill="#5B6378"/><path d="" fill="#5B6378"/><path d="M431.953533319363 107.007V92.499H433.32381517183575V107.007Z" fill="#5B6378"/><path d="" fill="#5B6378"/><path d="" fill="#5B6378"/><path d="M450.2836173254805 104.12503939647947Q449.0406053550683 104.12503939647947 447.9832380295878 103.70774444677284Q446.9258707041073 103.29044949706622 446.1479409052808 102.5399045473596Q445.3700111064543 101.78935959765298 444.9384212070411 100.78093305721282Q444.5068313076278 99.77250651677268 444.5068313076278 98.575Q444.5068313076278 97.37749348322733 444.9384212070411 96.36906694278719Q445.3700111064543 95.36064040234703 446.1496058486272 94.60820664165125Q446.9292005908001 93.85577288095547 447.9820553456934 93.44036674223801Q449.0349101005867 93.02496060352054 450.28076969823974 93.02496060352054Q451.5266292958927 93.02496060352054 452.5757235752967 93.43803867287927Q453.62481785470067 93.851116742238 454.4016281226563 94.5993336225859Q455.1784383906119 95.34755050293379 455.6100282900252 96.36049434199498Q456.0416181894384 97.37343818105616 456.0416181894384 98.57630898994132Q456.0416181894384 99.77917979882649 455.6100282900252 100.79081464794635Q455.1784383906119 101.80244949706622 454.4016281226563 102.5506663774141Q453.62481785470067 103.298883257762 452.5757235752967 103.71196132712073Q451.5266292958927 104.12503939647947 450.2836173254805 104.12503939647947ZM453.83267979882646 106.26233738474434Q453.2963707041073 106.26233738474434 452.8017414082146 106.13299748533109Q452.3071121123219 106.00365758591785 451.80886766554903 105.71759293797149Q451.3106232187762 105.43152829002514 450.7837888725901 104.97444394383905Q450.256954526404 104.51735959765297 449.64314543168484 103.84878080469404L451.3027757753562 103.41785352053647Q451.76432627829 103.99135352053646 452.1919469823973 104.35387877200336Q452.6195676865046 104.71640402347025 453.03168839061186 104.87742927493713Q453.4438090947192 105.03845452640402 453.8584120797243 105.03845452640402Q455.00860100586755 105.03845452640402 455.83147170997483 104.1081232187762L456.55897778709135 104.99270808885163Q455.50634849119865 106.26233738474434 453.83267979882646 106.26233738474434ZM450.28076969823974 102.74407774518022Q451.1873313076278 102.74407774518022 451.9519828164291 102.4339120913663Q452.7166343252305 102.12374643755238 453.28646927150805 101.55318826473035Q453.8563042177856 100.98263009190833 454.1721909814829 100.22397581815596Q454.4880777451802 99.46532154440361 454.4880777451802 98.575Q454.4880777451802 97.67084849119865 454.1721909814829 96.91614097615414Q453.8563042177856 96.16143346110962 453.28646927150805 95.59384351177862Q452.7166343252305 95.02625356244761 451.9519828164291 94.7160879086337Q451.1873313076278 94.40592225481979 450.28076969823974 94.40592225481979Q449.3742080888516 94.40592225481979 448.60301163034364 94.7160879086337Q447.8318151718357 95.02625356244761 447.26198022555815 95.59384351177862Q446.6921452792806 96.16143346110962 446.37625851558334 96.91614097615414Q446.060371751886 97.67084849119865 446.060371751886 98.575Q446.060371751886 99.46532154440361 446.37625851558334 100.22397581815596Q446.6921452792806 100.98263009190833 447.26198022555815 101.55318826473035Q447.8318151718357 102.12374643755238 448.60301163034364 102.4339120913663Q449.3742080888516 102.74407774518022 450.28076969823974 102.74407774518022Z" fill="#5B6378"/><path d="M461.80828080469405 104.08576969823973Q460.7460111064543 104.08576969823973 459.95085655909475 103.6994747485331Q459.1557020117351 103.31317979882648 458.71463736378877 102.51682020117352Q458.2735727158424 101.72046060352054 458.2735727158424 100.51765150880134V95.79015150880134H459.76166366303437V100.34748281642916Q459.76166366303437 101.5475050293378 460.3403151718357 102.15233633696563Q460.918966680637 102.75716764459347 461.97603939647945 102.75716764459347Q462.7479212070411 102.75716764459347 463.31934241408214 102.44218178960604Q463.8907636211232 102.12719593461861 464.2062691743504 101.51581967728416Q464.5217747275775 100.9044434199497 464.5217747275775 100.02784241408214V95.79015150880134H466.0098656747695V104.0H464.58722422464376V101.78935959765298L464.82766261525563 102.37254547359598Q464.4212131181894 103.18851718357082 463.61693786672254 103.63714344090528Q462.81266261525565 104.08576969823973 461.80828080469405 104.08576969823973Z" fill="#5B6378"/><path d="M474.0908030176027 104.0V102.26366869237216L474.0253535205365 101.93471919530595V98.9704383906119Q474.0253535205365 98.02909597652976 473.47252776613584 97.51140507124896Q472.9197020117351 96.99371416596814 471.82369090528084 96.99371416596814Q471.0817696982397 96.99371416596814 470.39012929589273 97.2317197191953Q469.6984888935457 97.46972527242247 469.2107585917854 97.87409597652976L468.58797170997485 96.76698281642916Q469.2269212070411 96.25066261525566 470.1204156538139 95.97752221290864Q471.01391010058677 95.70438181056161 471.99144949706624 95.70438181056161Q473.6744272841576 95.70438181056161 474.59393587594303 96.52864595557418Q475.51344446772845 97.35291010058675 475.51344446772845 99.04656768650462V104.0ZM471.4038202011735 104.08576969823973Q470.478640402347 104.08576969823973 469.79078080469407 103.78058989941324Q469.1029212070411 103.47541010058676 468.7304015088014 102.92464040234702Q468.3578818105616 102.37387070410729 468.3578818105616 101.66810100586756Q468.3578818105616 101.00297170997486 468.674946458508 100.46236211232187Q468.99201110645436 99.9217525146689 469.7167303017603 99.59332271584242Q470.44144949706623 99.26489291701593 471.6549383906119 99.26489291701593H474.2613030176027V100.34478688181056H471.7179777870914Q470.61577577535627 100.34478688181056 470.2243293168483 100.71350303855826Q469.8328828583403 101.08221919530595 469.8328828583403 101.61333130762783Q469.8328828583403 102.22435352053647 470.3161242665549 102.58238987845768Q470.7993656747695 102.94042623637888 471.65252829002515 102.94042623637888Q472.48778080469407 102.94042623637888 473.11517676026824 102.56929997904443Q473.7425727158424 102.19817372170998 474.0253535205365 101.48347170997485L474.3112525146689 102.50963537300922Q474.0119323134954 103.24810708298408 473.2701767602682 103.6669383906119Q472.5284212070411 104.08576969823973 471.4038202011735 104.08576969823973Z" fill="#5B6378"/><path d="M478.42598281642915 104.0V95.79015150880134H479.8486242665549V98.00320201173513L479.608185875943 97.42001613579212Q480.01704547359594 96.6016343252305 480.85232072506284 96.15300806789605Q481.68759597652974 95.70438181056161 482.8063373847443 95.70438181056161Q483.81142728415756 95.70438181056161 484.57678688181056 96.09067676026822Q485.3421464794635 96.47697170997485 485.7832111274099 97.2667863579212Q486.22427577535626 98.05660100586756 486.22427577535626 99.2725V104.0H484.73618482816426V99.44266869237217Q484.73618482816426 98.24264647946353 484.1533984702431 97.63781517183571Q483.5706121123219 97.03298386420788 482.5076797988265 97.03298386420788Q481.7285676865046 97.03298386420788 481.1392363788768 97.3479697191953Q480.54990507124893 97.66295557418273 480.231989417435 98.26658183151719Q479.9140737636211 98.87020808885164 479.9140737636211 99.7623090947192V104.0Z" fill="#5B6378"/><path d="M491.9571969823973 104.08576969823973Q490.7106292958927 104.08576969823973 490.0313707041073 103.42546060352053Q489.3521121123219 102.76515150880134 489.3521121123219 101.5151343252305V93.98629191114837H490.84020305951384V101.463814124057Q490.84020305951384 102.11996563285834 491.17361871332776 102.47783633696562Q491.50703436714167 102.83570704107292 492.1297757753563 102.83570704107292Q492.8179666806371 102.83570704107292 493.2795171835709 102.45751613579212L493.7452252724225 103.52535959765298Q493.4138656747695 103.80676969823973 492.9352560771165 103.94626969823973Q492.45664647946353 104.08576969823973 491.9571969823973 104.08576969823973ZM487.9461010058676 97.01403436714166V95.79015150880134H493.1992757753563V97.01403436714166Z" fill="#5B6378"/></svg>